<svg width="69" height="43" viewBox="0 0 69 43" fill="none" xmlns="http://www.w3.org/2000/svg">
<g filter="url(#filter0_i_5642_2933)">
<rect x="6.44531" y="6" width="60.3492" height="30.1746" rx="15.0873" fill="url(#paint0_linear_5642_2933)"/>
</g>
<rect x="5.44531" y="5" width="62.3492" height="32.1746" rx="16.0873" stroke="url(#paint1_linear_5642_2933)" stroke-width="2"/>
<g filter="url(#filter1_d_5642_2933)">
<rect x="6" y="6" width="30.1746" height="30.1746" rx="15.0873" fill="url(#paint2_linear_5642_2933)"/>
<rect x="5" y="5" width="32.1746" height="32.1746" rx="16.0873" stroke="url(#paint3_linear_5642_2933)" stroke-width="2"/>
</g>
<path d="M16.1032 24.0818C16.639 25.0106 17.3931 25.795 18.3002 26.3669C19.2072 26.9388 20.24 27.2811 21.3091 27.3641C22.3782 27.4472 23.4514 27.2685 24.4359 26.8435C25.4204 26.4185 26.2866 25.76 26.9594 24.9251C24.2829 23.8974 22.6502 22.6372 21.6717 20.769C20.6809 18.8782 20.4077 16.8361 20.9532 14.2363C20.1042 14.3488 19.2798 14.6267 18.5188 15.0663C17.003 15.9416 15.8969 17.3831 15.4439 19.0738C14.9909 20.7645 15.2281 22.5659 16.1032 24.0818ZM25.5914 27.3179C24.604 27.8869 23.5005 28.2248 22.3639 28.3063C21.2272 28.3879 20.0868 28.2108 19.0283 27.7886C17.9698 27.3663 17.0207 26.7098 16.2523 25.8682C15.4839 25.0267 14.916 24.022 14.5914 22.9297C14.2668 21.8373 14.1938 20.6855 14.378 19.5609C14.5622 18.4363 14.9987 17.368 15.6548 16.4362C16.3109 15.5045 17.1696 14.7334 18.1663 14.1809C19.163 13.6285 20.2719 13.309 21.4098 13.2464C21.498 13.2417 21.5861 13.2577 21.6671 13.2931C21.748 13.3285 21.8195 13.3823 21.8759 13.4503C21.9323 13.5183 21.9721 13.5985 21.9919 13.6846C22.0118 13.7707 22.0112 13.8602 21.9903 13.946C21.3399 16.6102 21.58 18.5549 22.5103 20.3304C23.3933 22.017 24.9154 23.195 27.7573 24.2132C27.8389 24.2423 27.9127 24.2897 27.9731 24.3518C28.0334 24.414 28.0787 24.4892 28.1053 24.5716C28.132 24.654 28.1394 24.7414 28.1269 24.8271C28.1144 24.9128 28.0824 24.9945 28.0334 25.0659C27.3976 25.9885 26.5635 26.7573 25.5923 27.316L25.5914 27.3179Z" fill="#C4C8DE"/>
<path d="M50.806 24.019C49.952 24.019 49.1329 23.6797 48.529 23.0758C47.9251 22.4719 47.5858 21.6528 47.5858 20.7987C47.5858 19.9447 47.9251 19.1256 48.529 18.5217C49.1329 17.9178 49.952 17.5785 50.806 17.5785C51.6601 17.5785 52.4792 17.9178 53.0831 18.5217C53.687 19.1256 54.0263 19.9447 54.0263 20.7987C54.0263 21.6528 53.687 22.4719 53.0831 23.0758C52.4792 23.6797 51.6601 24.019 50.806 24.019ZM50.806 25.0924C51.9448 25.0924 53.0369 24.64 53.8421 23.8348C54.6473 23.0296 55.0997 21.9375 55.0997 20.7987C55.0997 19.66 54.6473 18.5679 53.8421 17.7627C53.0369 16.9574 51.9448 16.5051 50.806 16.5051C49.6673 16.5051 48.5752 16.9574 47.77 17.7627C46.9648 18.5679 46.5124 19.66 46.5124 20.7987C46.5124 21.9375 46.9648 23.0296 47.77 23.8348C48.5752 24.64 49.6673 25.0924 50.806 25.0924ZM50.806 12.2114C50.9484 12.2114 51.0849 12.268 51.1856 12.3686C51.2862 12.4693 51.3428 12.6058 51.3428 12.7481V14.895C51.3428 15.0373 51.2862 15.1738 51.1856 15.2745C51.0849 15.3751 50.9484 15.4317 50.806 15.4317C50.6637 15.4317 50.5272 15.3751 50.4265 15.2745C50.3259 15.1738 50.2693 15.0373 50.2693 14.895V12.7481C50.2693 12.6058 50.3259 12.4693 50.4265 12.3686C50.5272 12.268 50.6637 12.2114 50.806 12.2114V12.2114ZM50.806 26.1658C50.9484 26.1658 51.0849 26.2223 51.1856 26.323C51.2862 26.4236 51.3428 26.5601 51.3428 26.7025V28.8493C51.3428 28.9917 51.2862 29.1282 51.1856 29.2288C51.0849 29.3295 50.9484 29.386 50.806 29.386C50.6637 29.386 50.5272 29.3295 50.4265 29.2288C50.3259 29.1282 50.2693 28.9917 50.2693 28.8493V26.7025C50.2693 26.5601 50.3259 26.4236 50.4265 26.323C50.5272 26.2223 50.6637 26.1658 50.806 26.1658ZM59.3933 20.7987C59.3933 20.9411 59.3368 21.0776 59.2361 21.1782C59.1355 21.2789 58.999 21.3354 58.8566 21.3354H56.7098C56.5675 21.3354 56.431 21.2789 56.3303 21.1782C56.2297 21.0776 56.1731 20.9411 56.1731 20.7987C56.1731 20.6564 56.2297 20.5199 56.3303 20.4192C56.431 20.3186 56.5675 20.262 56.7098 20.262H58.8566C58.999 20.262 59.1355 20.3186 59.2361 20.4192C59.3368 20.5199 59.3933 20.6564 59.3933 20.7987ZM45.439 20.7987C45.439 20.9411 45.3824 21.0776 45.2818 21.1782C45.1811 21.2789 45.0446 21.3354 44.9023 21.3354H42.7555C42.6131 21.3354 42.4766 21.2789 42.3759 21.1782C42.2753 21.0776 42.2188 20.9411 42.2188 20.7987C42.2188 20.6564 42.2753 20.5199 42.3759 20.4192C42.4766 20.3186 42.6131 20.262 42.7555 20.262H44.9023C45.0446 20.262 45.1811 20.3186 45.2818 20.4192C45.3824 20.5199 45.439 20.6564 45.439 20.7987ZM56.8783 14.7264C56.979 14.8271 57.0355 14.9636 57.0355 15.1059C57.0355 15.2482 56.979 15.3847 56.8783 15.4853L55.3605 17.0042C55.3106 17.054 55.2514 17.0936 55.1862 17.1205C55.1211 17.1474 55.0512 17.1613 54.9807 17.1612C54.8383 17.1611 54.7017 17.1045 54.6011 17.0037C54.5513 16.9538 54.5118 16.8945 54.4848 16.8294C54.4579 16.7642 54.444 16.6944 54.4441 16.6238C54.4442 16.4814 54.5009 16.3449 54.6016 16.2442L56.1194 14.7264C56.2201 14.6258 56.3566 14.5693 56.4989 14.5693C56.6412 14.5693 56.7777 14.6258 56.8783 14.7264ZM47.0105 24.5943C47.1111 24.695 47.1676 24.8314 47.1676 24.9738C47.1676 25.1161 47.1111 25.2526 47.0105 25.3532L45.4927 26.871C45.3914 26.9688 45.2559 27.0229 45.1151 27.0217C44.9744 27.0204 44.8398 26.964 44.7403 26.8645C44.6408 26.765 44.5843 26.6304 44.5831 26.4896C44.5819 26.3489 44.636 26.2133 44.7338 26.1121L46.2516 24.5943C46.3522 24.4937 46.4887 24.4372 46.631 24.4372C46.7733 24.4372 46.9098 24.4937 47.0105 24.5943ZM56.8783 26.871C56.7777 26.9716 56.6412 27.0282 56.4989 27.0282C56.3566 27.0282 56.2201 26.9716 56.1194 26.871L54.6016 25.3532C54.5039 25.252 54.4498 25.1164 54.451 24.9757C54.4522 24.835 54.5087 24.7004 54.6082 24.6008C54.7077 24.5013 54.8423 24.4449 54.983 24.4437C55.1237 24.4424 55.2593 24.4965 55.3605 24.5943L56.8783 26.1121C56.979 26.2128 57.0355 26.3493 57.0355 26.4916C57.0355 26.6339 56.979 26.7704 56.8783 26.871ZM47.0105 17.0042C46.9098 17.1048 46.7733 17.1614 46.631 17.1614C46.4887 17.1614 46.3522 17.1048 46.2516 17.0042L44.7338 15.4853C44.6825 15.4358 44.6416 15.3766 44.6135 15.3111C44.5854 15.2456 44.5705 15.1752 44.5699 15.104C44.5693 15.0327 44.5829 14.962 44.6099 14.8961C44.6369 14.8301 44.6767 14.7702 44.7271 14.7198C44.7775 14.6694 44.8374 14.6295 44.9034 14.6025C44.9693 14.5756 45.04 14.562 45.1113 14.5626C45.1825 14.5632 45.253 14.578 45.3184 14.6062C45.3839 14.6343 45.4431 14.6752 45.4927 14.7264L47.0105 16.2442C47.0604 16.2941 47.1001 16.3533 47.1272 16.4185C47.1542 16.4837 47.1681 16.5536 47.1681 16.6242C47.1681 16.6948 47.1542 16.7647 47.1272 16.8299C47.1001 16.8951 47.0604 16.9544 47.0105 17.0042Z" fill="#999CBB"/>
<defs>
<filter id="filter0_i_5642_2933" x="4.44531" y="4" width="64.3477" height="37.1748" filterUnits="userSpaceOnUse" color-interpolation-filters="sRGB">
<feFlood flood-opacity="0" result="BackgroundImageFix"/>
<feBlend mode="normal" in="SourceGraphic" in2="BackgroundImageFix" result="shape"/>
<feColorMatrix in="SourceAlpha" type="matrix" values="0 0 0 0 0 0 0 0 0 0 0 0 0 0 0 0 0 0 127 0" result="hardAlpha"/>
<feOffset dy="3"/>
<feGaussianBlur stdDeviation="10"/>
<feComposite in2="hardAlpha" operator="arithmetic" k2="-1" k3="1"/>
<feColorMatrix type="matrix" values="0 0 0 0 0 0 0 0 0 0 0 0 0 0 0 0 0 0 0.15 0"/>
<feBlend mode="normal" in2="shape" result="effect1_innerShadow_5642_2933"/>
</filter>
<filter id="filter1_d_5642_2933" x="0" y="0" width="42.1758" height="42.1748" filterUnits="userSpaceOnUse" color-interpolation-filters="sRGB">
<feFlood flood-opacity="0" result="BackgroundImageFix"/>
<feColorMatrix in="SourceAlpha" type="matrix" values="0 0 0 0 0 0 0 0 0 0 0 0 0 0 0 0 0 0 127 0" result="hardAlpha"/>
<feOffset/>
<feGaussianBlur stdDeviation="2"/>
<feColorMatrix type="matrix" values="0 0 0 0 0 0 0 0 0 0 0 0 0 0 0 0 0 0 0.35 0"/>
<feBlend mode="normal" in2="BackgroundImageFix" result="effect1_dropShadow_5642_2933"/>
<feBlend mode="normal" in="SourceGraphic" in2="effect1_dropShadow_5642_2933" result="shape"/>
</filter>
<linearGradient id="paint0_linear_5642_2933" x1="36.6199" y1="6" x2="36.6199" y2="36.1746" gradientUnits="userSpaceOnUse">
<stop stop-color="#60647F"/>
<stop offset="1" stop-color="#40435A"/>
</linearGradient>
<linearGradient id="paint1_linear_5642_2933" x1="56.1923" y1="-2.79648" x2="49.4656" y2="48.9475" gradientUnits="userSpaceOnUse">
<stop stop-color="#4C4E64"/>
<stop offset="1" stop-color="#40435B"/>
</linearGradient>
<linearGradient id="paint2_linear_5642_2933" x1="26.1802" y1="15.8314" x2="12.2093" y2="30.3196" gradientUnits="userSpaceOnUse">
<stop stop-color="#5E627C"/>
<stop offset="1" stop-color="#3F4259"/>
</linearGradient>
<linearGradient id="paint3_linear_5642_2933" x1="21.0873" y1="6" x2="1.86048" y2="36.0115" gradientUnits="userSpaceOnUse">
<stop stop-color="#3C3E58"/>
<stop offset="1" stop-color="#484B61"/>
</linearGradient>
</defs>
</svg>
